<?xml version="1.0" encoding="UTF-8"?>
<svg xmlns="http://www.w3.org/2000/svg" xmlns:xlink="http://www.w3.org/1999/xlink" width="504px" height="504px" viewBox="0 0 504 504" version="1.1">
  <metadata xmlns:gridsvg="http://www.stat.auckland.ac.nz/~paul/R/gridSVG/">
    <gridsvg:generator name="gridSVG" version="1.5-1" time="2017-01-13 13:03:09"/>
    <gridsvg:argument name="name" value="forwards.svg"/>
    <gridsvg:argument name="exportCoords" value="none"/>
    <gridsvg:argument name="exportMappings" value="none"/>
    <gridsvg:argument name="exportJS" value="none"/>
    <gridsvg:argument name="res" value="72"/>
    <gridsvg:argument name="prefix" value=""/>
    <gridsvg:argument name="addClasses" value="FALSE"/>
    <gridsvg:argument name="indent" value="TRUE"/>
    <gridsvg:argument name="htmlWrapper" value="FALSE"/>
    <gridsvg:argument name="usePaths" value="vpPaths"/>
    <gridsvg:argument name="uniqueNames" value="TRUE"/>
    <gridsvg:separator name="id.sep" value="."/>
    <gridsvg:separator name="gPath.sep" value="::"/>
    <gridsvg:separator name="vpPath.sep" value="::"/>
  </metadata>
  <g transform="translate(0, 504) scale(1, -1)">
    <g id="gridSVG" fill="rgb(255,255,255)" stroke="rgb(0,0,0)" stroke-dasharray="none" stroke-width="0.75" font-size="12" font-family="Helvetica, Arial, FreeSans, Liberation Sans, Nimbus Sans L, sans-serif" opacity="1" stroke-linecap="round" stroke-linejoin="round" stroke-miterlimit="10" stroke-opacity="1" fill-opacity="1" font-weight="normal" font-style="normal">
      <defs>
        <linearGradient id="import.27.linear0.1" x1="0.63" x2="502.61" y1="501.91" y2="165.72" gradientUnits="userSpaceOnUse" spreadMethod="pad">
          <stop offset="0" stop-color="rgb(203,206,208)" stop-opacity="1"/>
          <stop offset="1" stop-color="rgb(132,131,139)" stop-opacity="1"/>
        </linearGradient>
        <linearGradient id="import.27.linear1.1" x1="207.45" x2="484.51" y1="397.54" y2="114.82" gradientUnits="userSpaceOnUse" spreadMethod="pad">
          <stop offset="0" stop-color="rgb(39,109,195)" stop-opacity="1"/>
          <stop offset="1" stop-color="rgb(22,92,170)" stop-opacity="1"/>
        </linearGradient>
        <linearGradient id="gridSVG.gradientFill.1.1" x1="0.5" x2="0.5" y1="0" y2="1" gradientUnits="objectBoundingBox" spreadMethod="pad">
          <stop offset="0" stop-color="rgb(0,0,4)" stop-opacity="1"/>
          <stop offset="0.11" stop-color="rgb(24,15,62)" stop-opacity="1"/>
          <stop offset="0.22" stop-color="rgb(69,16,119)" stop-opacity="1"/>
          <stop offset="0.33" stop-color="rgb(114,31,129)" stop-opacity="1"/>
          <stop offset="0.44" stop-color="rgb(159,47,127)" stop-opacity="1"/>
          <stop offset="0.56" stop-color="rgb(205,64,113)" stop-opacity="1"/>
          <stop offset="0.67" stop-color="rgb(241,96,93)" stop-opacity="1"/>
          <stop offset="0.78" stop-color="rgb(253,149,103)" stop-opacity="1"/>
          <stop offset="0.89" stop-color="rgb(254,201,141)" stop-opacity="1"/>
          <stop offset="1" stop-color="rgb(252,253,191)" stop-opacity="1"/>
        </linearGradient>
        <linearGradient id="greyscale.1" x1="0" x2="504" y1="504" y2="0" gradientUnits="userSpaceOnUse" spreadMethod="pad">
          <stop offset="0" stop-color="rgb(203,206,208)" stop-opacity="1"/>
          <stop offset="1" stop-color="rgb(132,131,139)" stop-opacity="1"/>
        </linearGradient>
      </defs>
      <g id="picture.shape.1">
        <defs>
          <clipPath id="picture.shape::picture.scale.1.clipPath">
            <rect x="0" y="113.47" width="504" height="390.53" fill="none" stroke="none"/>
          </clipPath>
        </defs>
        <g id="picture.shape::picture.scale.1" clip-path="url(#picture.shape::picture.scale.1.clipPath)">
          <g id="import.27.GRID.gTree.667.1">
            <g id="GRID.gTree.666.1">
              <g id="GRID.picComplexPath.660.1" stroke="rgb(255,255,255)" stroke-opacity="0" fill="url(#import.27.linear0.1)" fill-opacity="1">
                <g id="GRID.pathgrob.714.1">
                  <path id="GRID.pathgrob.714.1.1" d="M 251.62 165.72 L 251.62 165.72 L 243.09 165.82 L 234.62 166.13 L 226.19 166.63 L 217.81 167.34 L 209.46 168.26 L 201.14 169.38 L 192.86 170.71 L 184.61 172.25 L 176.4 173.99 L 168.23 175.95 L 160.11 178.12 L 152.06 180.49 L 144.08 183.08 L 136.18 185.87 L 128.38 188.86 L 120.69 192.05 L 113.13 195.44 L 105.71 199.02 L 98.44 202.78 L 91.35 206.71 L 84.44 210.82 L 77.74 215.08 L 71.25 219.5 L 65 224.05 L 58.99 228.74 L 53.24 233.55 L 47.75 238.46 L 42.55 243.48 L 37.63 248.59 L 33 253.77 L 28.68 259.03 L 24.66 264.35 L 20.95 269.72 L 17.55 275.13 L 14.47 280.58 L 11.69 286.07 L 9.24 291.58 L 7.09 297.12 L 5.25 302.68 L 3.73 308.26 L 2.51 313.86 L 1.59 319.49 L 0.98 325.14 L 0.67 330.83 L 0.63 333.82 L 0.63 333.82 L 0.78 339.53 L 1.24 345.2 L 1.99 350.85 L 3.05 356.46 L 4.42 362.05 L 6.09 367.62 L 8.08 373.17 L 10.37 378.7 L 12.98 384.2 L 15.9 389.67 L 19.14 395.1 L 22.69 400.49 L 26.55 405.84 L 30.71 411.13 L 35.18 416.35 L 39.95 421.5 L 45 426.57 L 50.34 431.54 L 55.96 436.4 L 61.84 441.16 L 67.96 445.78 L 74.33 450.27 L 80.92 454.61 L 87.72 458.8 L 94.72 462.83 L 101.9 466.68 L 109.24 470.35 L 116.73 473.84 L 124.36 477.13 L 132.1 480.23 L 139.95 483.13 L 147.89 485.82 L 155.91 488.3 L 163.99 490.58 L 172.13 492.65 L 180.32 494.5 L 188.55 496.15 L 196.82 497.59 L 205.12 498.82 L 213.45 499.84 L 221.82 500.66 L 230.22 501.27 L 238.67 501.68 L 247.16 501.88 L 251.62 501.91 L 251.62 501.91 L 260.15 501.81 L 268.62 501.51 L 277.04 501 L 285.43 500.29 L 293.78 499.37 L 302.1 498.25 L 310.38 496.92 L 318.63 495.39 L 326.84 493.64 L 335.01 491.68 L 343.12 489.52 L 351.18 487.14 L 359.16 484.56 L 367.06 481.77 L 374.86 478.77 L 382.55 475.58 L 390.11 472.19 L 397.53 468.62 L 404.8 464.86 L 411.89 460.92 L 418.8 456.82 L 425.5 452.55 L 431.98 448.14 L 438.24 443.58 L 444.25 438.9 L 450 434.09 L 455.48 429.17 L 460.69 424.15 L 465.61 419.05 L 470.24 413.86 L 474.56 408.61 L 478.58 403.29 L 482.29 397.92 L 485.69 392.5 L 488.77 387.05 L 491.54 381.57 L 494 376.06 L 496.15 370.52 L 497.99 364.96 L 499.51 359.38 L 500.73 353.78 L 501.65 348.15 L 502.26 342.49 L 502.57 336.8 L 502.61 333.82 L 502.61 333.82 L 502.46 328.11 L 502 322.43 L 501.25 316.79 L 500.19 311.17 L 498.82 305.58 L 497.15 300.01 L 495.16 294.46 L 492.87 288.94 L 490.26 283.44 L 487.34 277.97 L 484.1 272.53 L 480.55 267.14 L 476.69 261.79 L 472.53 256.51 L 468.06 251.28 L 463.29 246.13 L 458.23 241.07 L 452.89 236.1 L 447.28 231.23 L 441.4 226.48 L 435.28 221.85 L 428.91 217.36 L 422.32 213.02 L 415.52 208.83 L 408.52 204.81 L 401.34 200.96 L 394 197.28 L 386.51 193.8 L 378.88 190.5 L 371.14 187.4 L 363.29 184.51 L 355.35 181.82 L 347.33 179.33 L 339.25 177.06 L 331.11 174.99 L 322.92 173.13 L 314.69 171.49 L 306.42 170.05 L 298.12 168.82 L 289.79 167.8 L 281.42 166.98 L 273.02 166.37 L 264.57 165.96 L 256.07 165.75 L 251.62 165.72 Z M 290.04 436.19 L 290.04 436.19 L 282.55 436.1 L 275.11 435.82 L 267.72 435.36 L 260.37 434.71 L 253.06 433.87 L 245.77 432.85 L 238.52 431.63 L 231.31 430.22 L 224.15 428.62 L 217.05 426.83 L 210.01 424.84 L 203.05 422.67 L 196.2 420.31 L 189.45 417.77 L 182.84 415.06 L 176.37 412.17 L 170.07 409.12 L 163.96 405.91 L 158.05 402.55 L 152.36 399.06 L 146.9 395.44 L 141.7 391.7 L 136.77 387.85 L 132.11 383.91 L 127.74 379.89 L 123.67 375.79 L 119.91 371.63 L 116.46 367.41 L 113.32 363.15 L 110.5 358.86 L 108 354.53 L 105.81 350.17 L 103.95 345.8 L 102.4 341.4 L 101.16 336.98 L 100.23 332.54 L 99.61 328.08 L 99.3 323.58 L 99.26 321.28 L 99.26 321.28 L 99.42 316.76 L 99.88 312.29 L 100.65 307.84 L 101.73 303.41 L 103.12 299 L 104.82 294.61 L 106.84 290.25 L 109.18 285.9 L 111.84 281.59 L 114.82 277.31 L 118.11 273.07 L 121.71 268.88 L 125.63 264.75 L 129.84 260.69 L 134.35 256.7 L 139.15 252.81 L 144.21 249.01 L 149.54 245.33 L 155.11 241.77 L 160.91 238.34 L 166.92 235.06 L 173.13 231.92 L 179.51 228.95 L 186.06 226.15 L 192.74 223.51 L 199.54 221.06 L 206.45 218.8 L 213.44 216.72 L 220.52 214.83 L 227.65 213.13 L 234.84 211.62 L 242.07 210.31 L 249.33 209.18 L 256.63 208.25 L 263.97 207.5 L 271.34 206.94 L 278.74 206.57 L 286.2 206.38 L 290.04 206.36 L 290.04 206.36 L 297.43 206.42 L 304.73 206.61 L 311.97 206.93 L 319.15 207.39 L 326.27 207.99 L 333.33 208.73 L 340.35 209.63 L 347.3 210.68 L 354.19 211.89 L 361 213.27 L 367.73 214.82 L 374.37 216.54 L 380.91 218.43 L 387.32 220.5 L 393.6 222.75 L 399.72 225.18 L 405.68 227.78 L 411.46 230.56 L 417.04 233.51 L 422.41 236.62 L 427.55 239.9 L 432.45 243.34 L 437.1 246.93 L 441.48 250.67 L 445.6 254.55 L 449.44 258.57 L 453 262.71 L 456.26 266.98 L 459.24 271.37 L 461.92 275.87 L 464.31 280.49 L 466.41 285.21 L 468.22 290.04 L 469.75 294.97 L 470.99 300.02 L 471.94 305.18 L 472.62 310.47 L 473.02 315.88 L 473.15 321.28 L 473.15 321.28 L 473.02 326.83 L 472.61 332.23 L 471.92 337.51 L 470.95 342.67 L 469.71 347.71 L 468.18 352.65 L 466.36 357.47 L 464.25 362.19 L 461.85 366.8 L 459.16 371.3 L 456.18 375.68 L 452.9 379.95 L 449.34 384.09 L 445.49 388.1 L 441.37 391.98 L 436.97 395.71 L 432.31 399.3 L 427.4 402.74 L 422.26 406.01 L 416.88 409.12 L 411.3 412.07 L 405.52 414.84 L 399.55 417.44 L 393.42 419.86 L 387.14 422.1 L 380.72 424.17 L 374.19 426.06 L 367.55 427.77 L 360.81 429.32 L 353.99 430.69 L 347.1 431.9 L 340.15 432.95 L 333.14 433.84 L 326.07 434.58 L 318.95 435.18 L 311.77 435.63 L 304.53 435.95 L 297.22 436.13 L 290.04 436.19 Z" fill-rule="evenodd" stroke="rgb(255,255,255)" stroke-opacity="0"/>
                </g>
                <g id="GRID.polyline.715.1">
                  <polyline id="GRID.polyline.715.1.1" points="251.62,165.72 251.62,165.72 243.09,165.82 234.62,166.13 226.19,166.63 217.81,167.34 209.46,168.26 201.14,169.38 192.86,170.71 184.61,172.25 176.4,173.99 168.23,175.95 160.11,178.12 152.06,180.49 144.08,183.08 136.18,185.87 128.38,188.86 120.69,192.05 113.13,195.44 105.71,199.02 98.44,202.78 91.35,206.71 84.44,210.82 77.74,215.08 71.25,219.5 65,224.05 58.99,228.74 53.24,233.55 47.75,238.46 42.55,243.48 37.63,248.59 33,253.77 28.68,259.03 24.66,264.35 20.95,269.72 17.55,275.13 14.47,280.58 11.69,286.07 9.24,291.58 7.09,297.12 5.25,302.68 3.73,308.26 2.51,313.86 1.59,319.49 0.98,325.14 0.67,330.83 0.63,333.82 0.63,333.82 0.78,339.53 1.24,345.2 1.99,350.85 3.05,356.46 4.42,362.05 6.09,367.62 8.08,373.17 10.37,378.7 12.98,384.2 15.9,389.67 19.14,395.1 22.69,400.49 26.55,405.84 30.71,411.13 35.18,416.35 39.95,421.5 45,426.57 50.34,431.54 55.96,436.4 61.84,441.16 67.96,445.78 74.33,450.27 80.92,454.61 87.72,458.8 94.72,462.83 101.9,466.68 109.24,470.35 116.73,473.84 124.36,477.13 132.1,480.23 139.95,483.13 147.89,485.82 155.91,488.3 163.99,490.58 172.13,492.65 180.32,494.5 188.55,496.15 196.82,497.59 205.12,498.82 213.45,499.84 221.82,500.66 230.22,501.27 238.67,501.68 247.16,501.88 251.62,501.91 251.62,501.91 260.15,501.81 268.62,501.51 277.04,501 285.43,500.29 293.78,499.37 302.1,498.25 310.38,496.92 318.63,495.39 326.84,493.64 335.01,491.68 343.12,489.52 351.18,487.14 359.16,484.56 367.06,481.77 374.86,478.77 382.55,475.58 390.11,472.19 397.53,468.62 404.8,464.86 411.89,460.92 418.8,456.82 425.5,452.55 431.98,448.14 438.24,443.58 444.25,438.9 450,434.09 455.48,429.17 460.69,424.15 465.61,419.05 470.24,413.86 474.56,408.61 478.58,403.29 482.29,397.92 485.69,392.5 488.77,387.05 491.54,381.57 494,376.06 496.15,370.52 497.99,364.96 499.51,359.38 500.73,353.78 501.65,348.15 502.26,342.49 502.57,336.8 502.61,333.82 502.61,333.82 502.46,328.11 502,322.43 501.25,316.79 500.19,311.17 498.82,305.58 497.15,300.01 495.16,294.46 492.87,288.94 490.26,283.44 487.34,277.97 484.1,272.53 480.55,267.14 476.69,261.79 472.53,256.51 468.06,251.28 463.29,246.13 458.23,241.07 452.89,236.1 447.28,231.23 441.4,226.48 435.28,221.85 428.91,217.36 422.32,213.02 415.52,208.83 408.52,204.81 401.34,200.96 394,197.28 386.51,193.8 378.88,190.5 371.14,187.4 363.29,184.51 355.35,181.82 347.33,179.33 339.25,177.06 331.11,174.99 322.92,173.13 314.69,171.49 306.42,170.05 298.12,168.82 289.79,167.8 281.42,166.98 273.02,166.37 264.57,165.96 256.07,165.75 251.62,165.72 251.62,165.72" fill="none" fill-opacity="0"/>
                  <polyline id="GRID.polyline.715.1.2" points="290.04,436.19 290.04,436.19 282.55,436.1 275.11,435.82 267.72,435.36 260.37,434.71 253.06,433.87 245.77,432.85 238.52,431.63 231.31,430.22 224.15,428.62 217.05,426.83 210.01,424.84 203.05,422.67 196.2,420.31 189.45,417.77 182.84,415.06 176.37,412.17 170.07,409.12 163.96,405.91 158.05,402.55 152.36,399.06 146.9,395.44 141.7,391.7 136.77,387.85 132.11,383.91 127.74,379.89 123.67,375.79 119.91,371.63 116.46,367.41 113.32,363.15 110.5,358.86 108,354.53 105.81,350.17 103.95,345.8 102.4,341.4 101.16,336.98 100.23,332.54 99.61,328.08 99.3,323.58 99.26,321.28 99.26,321.28 99.42,316.76 99.88,312.29 100.65,307.84 101.73,303.41 103.12,299 104.82,294.61 106.84,290.25 109.18,285.9 111.84,281.59 114.82,277.31 118.11,273.07 121.71,268.88 125.63,264.75 129.84,260.69 134.35,256.7 139.15,252.81 144.21,249.01 149.54,245.33 155.11,241.77 160.91,238.34 166.92,235.06 173.13,231.92 179.51,228.95 186.06,226.15 192.74,223.51 199.54,221.06 206.45,218.8 213.44,216.72 220.52,214.83 227.65,213.13 234.84,211.62 242.07,210.31 249.33,209.18 256.63,208.25 263.97,207.5 271.34,206.94 278.74,206.57 286.2,206.38 290.04,206.36 290.04,206.36 297.43,206.42 304.73,206.61 311.97,206.93 319.15,207.39 326.27,207.99 333.33,208.73 340.35,209.63 347.3,210.68 354.19,211.89 361,213.27 367.73,214.82 374.37,216.54 380.91,218.43 387.32,220.5 393.6,222.75 399.72,225.18 405.68,227.78 411.46,230.56 417.04,233.51 422.41,236.62 427.55,239.9 432.45,243.34 437.1,246.93 441.48,250.67 445.6,254.55 449.44,258.57 453,262.71 456.26,266.98 459.24,271.37 461.92,275.87 464.31,280.49 466.41,285.21 468.22,290.04 469.75,294.97 470.99,300.02 471.94,305.18 472.62,310.47 473.02,315.88 473.15,321.28 473.15,321.28 473.02,326.83 472.61,332.23 471.92,337.51 470.95,342.67 469.71,347.71 468.18,352.65 466.36,357.47 464.25,362.19 461.85,366.8 459.16,371.3 456.18,375.68 452.9,379.95 449.34,384.09 445.49,388.1 441.37,391.98 436.97,395.71 432.31,399.3 427.4,402.74 422.26,406.01 416.88,409.12 411.3,412.07 405.52,414.84 399.55,417.44 393.42,419.86 387.14,422.1 380.72,424.17 374.19,426.06 367.55,427.77 360.81,429.32 353.99,430.69 347.1,431.9 340.15,432.95 333.14,433.84 326.07,434.58 318.95,435.18 311.77,435.63 304.53,435.95 297.22,436.13 290.04,436.19 290.04,436.19" fill="none" fill-opacity="0"/>
                </g>
              </g>
              <g id="GRID.picComplexPath.663.1" stroke="rgb(255,255,255)" stroke-opacity="0" fill="url(#gridSVG.gradientFill.1.1)" fill-opacity="1">
                <g id="GRID.pathgrob.716.1">
                  <path id="GRID.pathgrob.716.1.1" d="M 382.87 241.56 L 382.87 241.56 L 383.13 241.48 L 383.89 241.24 L 385.12 240.85 L 386.79 240.31 L 388.85 239.62 L 391.2 238.82 L 393.76 237.91 L 396.41 236.94 L 399.04 235.93 L 401.58 234.91 L 403.94 233.9 L 406.1 232.9 L 406.89 232.51 L 406.89 232.51 L 407.85 232.01 L 408.97 231.39 L 410.24 230.65 L 411.63 229.77 L 413.1 228.79 L 414.58 227.73 L 416.01 226.63 L 417.33 225.5 L 418.54 224.35 L 419.07 223.81 L 419.07 223.81 L 420.34 222.37 L 421.49 220.9 L 422.5 219.46 L 423.35 218.14 L 423.98 217.06 L 424.4 216.29 L 424.61 215.88 L 424.64 215.8 L 484.51 114.86 L 387.75 114.82 L 342.5 199.79 L 342.5 199.79 L 342.34 200.06 L 341.87 200.85 L 341.11 202.1 L 340.07 203.77 L 338.8 205.77 L 337.33 208 L 335.74 210.35 L 334.08 212.7 L 332.43 214.92 L 330.83 216.92 L 329.34 218.61 L 327.96 219.96 L 327.53 220.33 L 327.53 220.33 L 326.1 221.47 L 324.77 222.48 L 323.48 223.36 L 322.21 224.11 L 320.94 224.7 L 319.66 225.12 L 318.37 225.39 L 317.03 225.52 L 316.04 225.55 L 316.04 225.55 L 314.97 225.55 L 313.32 225.55 L 311.17 225.55 L 308.64 225.55 L 305.85 225.55 L 302.98 225.55 L 300.21 225.55 L 297.72 225.55 L 295.65 225.55 L 294.13 225.55 L 293.25 225.55 L 293.05 225.55 L 293.07 114.88 L 207.45 114.84 L 207.45 397.54 L 379.39 397.54 L 379.39 397.54 L 379.66 397.53 L 380.46 397.49 L 381.74 397.39 L 383.51 397.22 L 385.71 396.95 L 388.33 396.56 L 391.34 396.01 L 394.69 395.29 L 398.35 394.36 L 402.27 393.21 L 406.41 391.82 L 410.7 390.16 L 415.1 388.22 L 419.55 385.97 L 423.98 383.41 L 428.34 380.53 L 432.57 377.32 L 436.61 373.77 L 440.43 369.88 L 443.95 365.64 L 447.16 361.05 L 449.99 356.11 L 452.43 350.8 L 454.44 345.12 L 455.99 339.05 L 457.06 332.56 L 457.62 325.64 L 457.71 321.61 L 457.71 321.61 L 457.45 314.43 L 456.7 307.67 L 455.47 301.32 L 453.79 295.35 L 451.69 289.73 L 449.2 284.45 L 446.34 279.52 L 443.15 274.91 L 439.66 270.64 L 435.93 266.69 L 431.99 263.08 L 427.89 259.79 L 423.7 256.82 L 419.46 254.17 L 415.24 251.82 L 411.08 249.77 L 407.04 248 L 403.17 246.5 L 399.53 245.25 L 396.15 244.23 L 393.09 243.41 L 390.36 242.78 L 388.02 242.3 L 386.08 241.97 L 384.58 241.75 L 383.53 241.62 L 382.97 241.57 L 382.87 241.56 Z M 345.63 336.22 L 293.79 336.25 L 293.77 288.18 L 345.63 288.2 L 345.63 288.2 L 345.86 288.2 L 346.54 288.25 L 347.62 288.36 L 349.05 288.59 L 350.8 288.97 L 352.81 289.55 L 354.99 290.35 L 357.27 291.41 L 359.56 292.76 L 361.78 294.42 L 363.85 296.39 L 365.69 298.68 L 367.23 301.31 L 368.43 304.28 L 369.24 307.61 L 369.62 311.35 L 369.65 312.65 L 369.65 312.65 L 369.44 316.4 L 368.83 319.75 L 367.85 322.72 L 366.54 325.36 L 364.94 327.66 L 363.1 329.65 L 361.08 331.34 L 358.94 332.73 L 356.76 333.84 L 354.6 334.69 L 352.55 335.32 L 350.67 335.75 L 349.02 336.01 L 347.65 336.16 L 346.61 336.22 L 345.93 336.22 L 345.64 336.22 L 345.63 336.22 Z" fill-rule="evenodd" stroke="rgb(255,255,255)" stroke-opacity="0"/>
                </g>
                <g id="GRID.polyline.717.1">
                  <polyline id="GRID.polyline.717.1.1" points="382.87,241.56 382.87,241.56 383.13,241.48 383.89,241.24 385.12,240.85 386.79,240.31 388.85,239.62 391.2,238.82 393.76,237.91 396.41,236.94 399.04,235.93 401.58,234.91 403.94,233.9 406.1,232.9 406.89,232.51 406.89,232.51 407.85,232.01 408.97,231.39 410.24,230.65 411.63,229.77 413.1,228.79 414.58,227.73 416.01,226.63 417.33,225.5 418.54,224.35 419.07,223.81 419.07,223.81 420.34,222.37 421.49,220.9 422.5,219.46 423.35,218.14 423.98,217.06 424.4,216.29 424.61,215.88 424.64,215.8 484.51,114.86 387.75,114.82 342.5,199.79 342.5,199.79 342.34,200.06 341.87,200.85 341.11,202.1 340.07,203.77 338.8,205.77 337.33,208 335.74,210.35 334.08,212.7 332.43,214.92 330.83,216.92 329.34,218.61 327.96,219.96 327.53,220.33 327.53,220.33 326.1,221.47 324.77,222.48 323.48,223.36 322.21,224.11 320.94,224.7 319.66,225.12 318.37,225.39 317.03,225.52 316.04,225.55 316.04,225.55 314.97,225.55 313.32,225.55 311.17,225.55 308.64,225.55 305.85,225.55 302.98,225.55 300.21,225.55 297.72,225.55 295.65,225.55 294.13,225.55 293.25,225.55 293.05,225.55 293.07,114.88 207.45,114.84 207.45,397.54 379.39,397.54 379.39,397.54 379.66,397.53 380.46,397.49 381.74,397.39 383.51,397.22 385.71,396.95 388.33,396.56 391.34,396.01 394.69,395.29 398.35,394.36 402.27,393.21 406.41,391.82 410.7,390.16 415.1,388.22 419.55,385.97 423.98,383.41 428.34,380.53 432.57,377.32 436.61,373.77 440.43,369.88 443.95,365.64 447.16,361.05 449.99,356.11 452.43,350.8 454.44,345.12 455.99,339.05 457.06,332.56 457.62,325.64 457.71,321.61 457.71,321.61 457.45,314.43 456.7,307.67 455.47,301.32 453.79,295.35 451.69,289.73 449.2,284.45 446.34,279.52 443.15,274.91 439.66,270.64 435.93,266.69 431.99,263.08 427.89,259.79 423.7,256.82 419.46,254.17 415.24,251.82 411.08,249.77 407.04,248 403.17,246.5 399.53,245.25 396.15,244.23 393.09,243.41 390.36,242.78 388.02,242.3 386.08,241.97 384.58,241.75 383.53,241.62 382.97,241.57 382.87,241.56 382.87,241.56" fill="none" fill-opacity="0"/>
                  <polyline id="GRID.polyline.717.1.2" points="345.63,336.22 293.79,336.25 293.77,288.18 345.63,288.2 345.63,288.2 345.86,288.2 346.54,288.25 347.62,288.36 349.05,288.59 350.8,288.97 352.81,289.55 354.99,290.35 357.27,291.41 359.56,292.76 361.78,294.42 363.85,296.39 365.69,298.68 367.23,301.31 368.43,304.28 369.24,307.61 369.62,311.35 369.65,312.65 369.65,312.65 369.44,316.4 368.83,319.75 367.85,322.72 366.54,325.36 364.94,327.66 363.1,329.65 361.08,331.34 358.94,332.73 356.76,333.84 354.6,334.69 352.55,335.32 350.67,335.75 349.02,336.01 347.65,336.16 346.61,336.22 345.93,336.22 345.64,336.22 345.63,336.22 345.63,336.22" fill="none" fill-opacity="0"/>
                </g>
              </g>
            </g>
          </g>
        </g>
      </g>
      <g id="picture.shape.2">
        <defs>
          <clipPath id="picture.shape::picture.scale.2.clipPath">
            <rect x="0" y="0" width="504" height="504" fill="none" stroke="none"/>
          </clipPath>
        </defs>
        <g id="picture.shape::picture.scale.2" clip-path="url(#picture.shape::picture.scale.2.clipPath)">
          <g id="import.28.label.1">
            <g id="GRID.gTree.697.1">
              <g id="GRID.gTree.696.1" fill="rgb(143,143,150)" fill-opacity="1">
                <g id="GRID.picComplexPath.672.1" stroke="rgb(255,255,255)" stroke-opacity="0">
                  <g id="GRID.pathgrob.718.1" fill="url(#greyscale.1)" fill-opacity="1">
                    <path id="GRID.pathgrob.718.1.1" d="M 25.47 37.95 L 9.14 37.95 L 9.14 99.34 L 45.42 99.34 L 45.42 86.03 L 25.47 86.03 L 25.47 74.31 L 43.86 74.31 L 43.86 61 L 25.47 61 Z" fill-rule="nonzero" stroke="rgb(255,255,255)" stroke-opacity="0"/>
                  </g>
                  <g id="GRID.polyline.719.1">
                    <polyline id="GRID.polyline.719.1.1" points="25.47,37.95 9.14,37.95 9.14,99.34 45.42,99.34 45.42,86.03 25.47,86.03 25.47,74.31 43.86,74.31 43.86,61 25.47,61 25.47,37.95" fill="none" fill-opacity="0"/>
                  </g>
                </g>
                <g id="GRID.picComplexPath.675.1" stroke="rgb(255,255,255)" stroke-opacity="0">
                  <g id="GRID.pathgrob.720.1" fill="url(#greyscale.1)" fill-opacity="1">
                    <path id="GRID.pathgrob.720.1.1" d="M 113.16 68.73 L 113.16 68.73 L 113.09 65.98 L 112.88 63.27 L 112.5 60.58 L 111.96 57.92 L 111.25 55.35 L 110.38 52.93 L 109.38 50.71 L 108.26 48.71 L 107.06 46.96 L 105.76 45.4 L 105.55 45.17 L 105.55 45.17 L 104.07 43.74 L 102.4 42.43 L 100.5 41.21 L 98.37 40.11 L 96.04 39.16 L 93.56 38.39 L 90.99 37.8 L 88.39 37.39 L 85.77 37.17 L 83.3 37.11 L 83.3 37.11 L 80.67 37.18 L 78.08 37.42 L 75.5 37.84 L 72.96 38.45 L 70.5 39.25 L 68.18 40.22 L 66.07 41.33 L 64.18 42.57 L 62.52 43.9 L 61.16 45.21 L 61.16 45.21 L 59.83 46.75 L 58.59 48.48 L 57.45 50.44 L 56.42 52.63 L 55.52 55.02 L 54.77 57.57 L 54.19 60.22 L 53.79 62.9 L 53.55 65.6 L 53.46 68.34 L 53.45 68.81 L 53.45 68.81 L 53.52 71.54 L 53.74 74.23 L 54.11 76.9 L 54.66 79.54 L 55.38 82.1 L 56.26 84.51 L 57.28 86.72 L 58.4 88.71 L 59.62 90.47 L 60.93 92.02 L 61.11 92.21 L 61.11 92.21 L 62.6 93.64 L 64.27 94.96 L 66.18 96.18 L 68.31 97.28 L 70.64 98.24 L 73.12 99.02 L 75.69 99.61 L 78.29 100.02 L 80.9 100.24 L 83.39 100.31 L 83.39 100.31 L 86.05 100.23 L 88.67 100 L 91.27 99.58 L 93.83 98.98 L 96.3 98.19 L 98.62 97.23 L 100.73 96.13 L 102.6 94.91 L 104.25 93.59 L 105.59 92.28 L 105.59 92.28 L 106.9 90.75 L 108.11 89.03 L 109.23 87.08 L 110.25 84.9 L 111.14 82.5 L 111.87 79.95 L 112.44 77.3 L 112.83 74.61 L 113.07 71.9 L 113.15 69.15 L 113.16 68.73 Z M 70.92 68.73 L 70.92 68.73 L 70.99 66.21 L 71.22 63.85 L 71.61 61.62 L 72.18 59.54 L 72.93 57.63 L 73.86 55.93 L 74.97 54.46 L 76.22 53.24 L 77.61 52.29 L 79.11 51.6 L 80.7 51.16 L 82.4 50.94 L 83.3 50.92 L 83.3 50.92 L 84.79 50.99 L 86.25 51.21 L 87.69 51.61 L 89.05 52.18 L 90.28 52.9 L 91.33 53.75 L 92.22 54.69 L 92.64 55.25 L 92.64 55.25 L 93.34 56.38 L 93.96 57.74 L 94.52 59.37 L 94.98 61.22 L 95.33 63.23 L 95.56 65.32 L 95.67 67.45 L 95.69 68.73 L 95.69 68.73 L 95.64 70.89 L 95.48 73.01 L 95.2 75.08 L 94.8 77.05 L 94.29 78.82 L 93.7 80.35 L 93.04 81.63 L 92.59 82.31 L 92.59 82.31 L 91.78 83.32 L 90.82 84.23 L 89.69 85.04 L 88.4 85.71 L 87.02 86.21 L 85.6 86.53 L 84.15 86.68 L 83.39 86.7 L 83.39 86.7 L 81.63 86.6 L 79.98 86.27 L 78.43 85.71 L 76.98 84.89 L 75.64 83.8 L 74.45 82.46 L 73.42 80.86 L 72.57 79.05 L 71.9 77.04 L 71.41 74.88 L 71.1 72.58 L 70.94 70.14 L 70.92 68.73 Z" fill-rule="nonzero" stroke="rgb(255,255,255)" stroke-opacity="0"/>
                  </g>
                  <g id="GRID.polyline.721.1">
                    <polyline id="GRID.polyline.721.1.1" points="113.16,68.73 113.16,68.73 113.09,65.98 112.88,63.27 112.5,60.58 111.96,57.92 111.25,55.35 110.38,52.93 109.38,50.71 108.26,48.71 107.06,46.96 105.76,45.4 105.55,45.17 105.55,45.17 104.07,43.74 102.4,42.43 100.5,41.21 98.37,40.11 96.04,39.16 93.56,38.39 90.99,37.8 88.39,37.39 85.77,37.17 83.3,37.11 83.3,37.11 80.67,37.18 78.08,37.42 75.5,37.84 72.96,38.45 70.5,39.25 68.18,40.22 66.07,41.33 64.18,42.57 62.52,43.9 61.16,45.21 61.16,45.21 59.83,46.75 58.59,48.48 57.45,50.44 56.42,52.63 55.52,55.02 54.77,57.57 54.19,60.22 53.79,62.9 53.55,65.6 53.46,68.34 53.45,68.81 53.45,68.81 53.52,71.54 53.74,74.23 54.11,76.9 54.66,79.54 55.38,82.1 56.26,84.51 57.28,86.72 58.4,88.71 59.62,90.47 60.93,92.02 61.11,92.21 61.11,92.21 62.6,93.64 64.27,94.96 66.18,96.18 68.31,97.28 70.64,98.24 73.12,99.02 75.69,99.61 78.29,100.02 80.9,100.24 83.39,100.31 83.39,100.31 86.05,100.23 88.67,100 91.27,99.58 93.83,98.98 96.3,98.19 98.62,97.23 100.73,96.13 102.6,94.91 104.25,93.59 105.59,92.28 105.59,92.28 106.9,90.75 108.11,89.03 109.23,87.08 110.25,84.9 111.14,82.5 111.87,79.95 112.44,77.3 112.83,74.61 113.07,71.9 113.15,69.15 113.16,68.73 113.16,68.73" fill="none" fill-opacity="0"/>
                    <polyline id="GRID.polyline.721.1.2" points="70.92,68.73 70.92,68.73 70.99,66.21 71.22,63.85 71.61,61.62 72.18,59.54 72.93,57.63 73.86,55.93 74.97,54.46 76.22,53.24 77.61,52.29 79.11,51.6 80.7,51.16 82.4,50.94 83.3,50.92 83.3,50.92 84.79,50.99 86.25,51.21 87.69,51.61 89.05,52.18 90.28,52.9 91.33,53.75 92.22,54.69 92.64,55.25 92.64,55.25 93.34,56.38 93.96,57.74 94.52,59.37 94.98,61.22 95.33,63.23 95.56,65.32 95.67,67.45 95.69,68.73 95.69,68.73 95.64,70.89 95.48,73.01 95.2,75.08 94.8,77.05 94.29,78.82 93.7,80.35 93.04,81.63 92.59,82.31 92.59,82.31 91.78,83.32 90.82,84.23 89.69,85.04 88.4,85.71 87.02,86.21 85.6,86.53 84.15,86.68 83.39,86.7 83.39,86.7 81.63,86.6 79.98,86.27 78.43,85.71 76.98,84.89 75.64,83.8 74.45,82.46 73.42,80.86 72.57,79.05 71.9,77.04 71.41,74.88 71.1,72.58 70.94,70.14 70.92,68.73 70.92,68.73" fill="none" fill-opacity="0"/>
                  </g>
                </g>
                <g id="GRID.picComplexPath.678.1" stroke="rgb(255,255,255)" stroke-opacity="0">
                  <g id="GRID.pathgrob.722.1" fill="url(#greyscale.1)" fill-opacity="1">
                    <path id="GRID.pathgrob.722.1.1" d="M 141.15 60.29 L 141.15 37.95 L 124.57 37.95 L 124.57 99.34 L 144.68 99.34 L 144.68 99.34 L 147.78 99.26 L 150.71 99.01 L 153.5 98.58 L 156.13 97.96 L 158.59 97.14 L 160.86 96.11 L 162.9 94.88 L 164.69 93.46 L 166.21 91.87 L 167.45 90.13 L 168.4 88.26 L 169.09 86.29 L 169.51 84.2 L 169.7 82 L 169.71 81.2 L 169.71 81.2 L 169.62 79.28 L 169.32 77.38 L 168.79 75.49 L 168.03 73.62 L 167.02 71.8 L 165.8 70.09 L 164.39 68.51 L 162.84 67.1 L 161.15 65.84 L 159.33 64.72 L 159.29 64.7 L 177.18 37.95 L 158.37 37.95 L 145.36 60.29 Z M 141.15 72.76 L 144.26 72.76 L 144.26 72.76 L 145.79 72.83 L 147.21 73.06 L 148.52 73.45 L 149.7 74.02 L 150.72 74.77 L 151.56 75.69 L 152.2 76.74 L 152.63 77.9 L 152.88 79.16 L 152.95 80.45 L 152.95 80.45 L 152.87 81.6 L 152.6 82.66 L 152.14 83.64 L 151.46 84.52 L 150.57 85.27 L 149.5 85.88 L 148.28 86.32 L 146.92 86.62 L 145.46 86.77 L 144.43 86.79 L 141.15 86.79 Z" fill-rule="nonzero" stroke="rgb(255,255,255)" stroke-opacity="0"/>
                  </g>
                  <g id="GRID.polyline.723.1">
                    <polyline id="GRID.polyline.723.1.1" points="141.15,60.29 141.15,37.95 124.57,37.95 124.57,99.34 144.68,99.34 144.68,99.34 147.78,99.26 150.71,99.01 153.5,98.58 156.13,97.96 158.59,97.14 160.86,96.11 162.9,94.88 164.69,93.46 166.21,91.87 167.45,90.13 168.4,88.26 169.09,86.29 169.51,84.2 169.7,82 169.71,81.2 169.71,81.2 169.62,79.28 169.32,77.38 168.79,75.49 168.03,73.62 167.02,71.8 165.8,70.09 164.39,68.51 162.84,67.1 161.15,65.84 159.33,64.72 159.29,64.7 177.18,37.95 158.37,37.95 145.36,60.29 141.15,60.29" fill="none" fill-opacity="0"/>
                    <polyline id="GRID.polyline.723.1.2" points="141.15,72.76 144.26,72.76 144.26,72.76 145.79,72.83 147.21,73.06 148.52,73.45 149.7,74.02 150.72,74.77 151.56,75.69 152.2,76.74 152.63,77.9 152.88,79.16 152.95,80.45 152.95,80.45 152.87,81.6 152.6,82.66 152.14,83.64 151.46,84.52 150.57,85.27 149.5,85.88 148.28,86.32 146.92,86.62 145.46,86.77 144.43,86.79 141.15,86.79 141.15,72.76" fill="none" fill-opacity="0"/>
                  </g>
                </g>
                <g id="GRID.picComplexPath.681.1" stroke="rgb(255,255,255)" stroke-opacity="0">
                  <g id="GRID.pathgrob.724.1" fill="url(#greyscale.1)" fill-opacity="1">
                    <path id="GRID.pathgrob.724.1.1" d="M 249.35 37.95 L 229.74 37.95 L 223.86 64.7 L 223.86 64.7 L 223.7 65.4 L 223.48 66.4 L 223.22 67.7 L 222.93 69.21 L 222.63 70.82 L 222.54 71.37 L 222.54 71.37 L 222.26 72.9 L 222 74.45 L 221.75 75.99 L 221.53 77.44 L 221.35 78.7 L 221.22 79.73 L 221.22 79.73 L 221.09 78.73 L 220.91 77.55 L 220.69 76.21 L 220.45 74.81 L 220.2 73.43 L 220.11 72.95 L 220.11 72.95 L 219.86 71.62 L 219.6 70.23 L 219.31 68.8 L 219.04 67.44 L 218.78 66.21 L 218.63 65.5 L 218.63 65.5 L 218.47 64.75 L 218.22 63.65 L 217.89 62.14 L 217.46 60.2 L 216.94 57.84 L 216.33 55.08 L 215.64 51.98 L 214.89 48.62 L 214.1 45.05 L 213.26 41.29 L 212.52 37.95 L 192.91 37.95 L 177.71 99.34 L 193.71 99.34 L 200.39 68.56 L 200.39 68.56 L 200.88 66.34 L 201.35 64.13 L 201.8 61.92 L 202.22 59.75 L 202.61 57.7 L 202.94 55.83 L 203.21 54.17 L 203.43 52.72 L 203.49 52.31 L 203.49 52.31 L 203.65 53.5 L 203.86 54.89 L 204.11 56.5 L 204.41 58.28 L 204.74 60.15 L 205.08 62.03 L 205.44 63.92 L 205.44 63.93 L 205.44 63.93 L 205.8 65.79 L 206.17 67.65 L 206.56 69.52 L 206.95 71.35 L 207.33 73.04 L 207.68 74.54 L 208 75.86 L 208.07 76.12 L 213.49 99.34 L 228.86 99.34 L 234.11 76.12 L 234.11 76.12 L 234.45 74.69 L 234.81 73.12 L 235.19 71.39 L 235.58 69.54 L 235.97 67.64 L 236.34 65.78 L 236.69 63.97 L 236.83 63.23 L 236.83 63.23 L 237.19 61.3 L 237.54 59.41 L 237.86 57.58 L 238.15 55.87 L 238.39 54.38 L 238.58 53.14 L 238.69 52.31 L 238.69 52.31 L 238.84 53.44 L 239.05 54.83 L 239.32 56.5 L 239.67 58.45 L 240.07 60.62 L 240.52 62.93 L 241 65.32 L 241.51 67.78 L 241.66 68.48 L 248.47 99.34 L 264.47 99.34 Z" fill-rule="nonzero" stroke="rgb(255,255,255)" stroke-opacity="0"/>
                  </g>
                  <g id="GRID.polyline.725.1">
                    <polyline id="GRID.polyline.725.1.1" points="249.35,37.95 229.74,37.95 223.86,64.7 223.86,64.7 223.7,65.4 223.48,66.4 223.22,67.7 222.93,69.21 222.63,70.82 222.54,71.37 222.54,71.37 222.26,72.9 222,74.45 221.75,75.99 221.53,77.44 221.35,78.7 221.22,79.73 221.22,79.73 221.09,78.73 220.91,77.55 220.69,76.21 220.45,74.81 220.2,73.43 220.11,72.95 220.11,72.95 219.86,71.62 219.6,70.23 219.31,68.8 219.04,67.44 218.78,66.21 218.63,65.5 218.63,65.5 218.47,64.75 218.22,63.65 217.89,62.14 217.46,60.2 216.94,57.84 216.33,55.08 215.64,51.98 214.89,48.62 214.1,45.05 213.26,41.29 212.52,37.95 192.91,37.95 177.71,99.34 193.71,99.34 200.39,68.56 200.39,68.56 200.88,66.34 201.35,64.13 201.8,61.92 202.22,59.75 202.61,57.7 202.94,55.83 203.21,54.17 203.43,52.72 203.49,52.31 203.49,52.31 203.65,53.5 203.86,54.89 204.11,56.5 204.41,58.28 204.74,60.15 205.08,62.03 205.44,63.92 205.44,63.93 205.44,63.93 205.8,65.79 206.17,67.65 206.56,69.52 206.95,71.35 207.33,73.04 207.68,74.54 208,75.86 208.07,76.12 213.49,99.34 228.86,99.34 234.11,76.12 234.11,76.12 234.45,74.69 234.81,73.12 235.19,71.39 235.58,69.54 235.97,67.64 236.34,65.78 236.69,63.97 236.83,63.23 236.83,63.23 237.19,61.3 237.54,59.41 237.86,57.58 238.15,55.87 238.39,54.38 238.58,53.14 238.69,52.31 238.69,52.31 238.84,53.44 239.05,54.83 239.32,56.5 239.67,58.45 240.07,60.62 240.52,62.93 241,65.32 241.51,67.78 241.66,68.48 248.47,99.34 264.47,99.34 249.35,37.95" fill="none" fill-opacity="0"/>
                  </g>
                </g>
                <g id="GRID.picComplexPath.684.1" stroke="rgb(255,255,255)" stroke-opacity="0">
                  <g id="GRID.pathgrob.726.1" fill="url(#greyscale.1)" fill-opacity="1">
                    <path id="GRID.pathgrob.726.1.1" d="M 310.49 37.95 L 307.47 49.45 L 287.52 49.45 L 284.41 37.95 L 266.19 37.95 L 286.22 99.59 L 308.35 99.59 L 328.63 37.95 Z M 304.02 63.06 L 301.38 73.14 L 301.38 73.14 L 301.09 74.21 L 300.75 75.47 L 300.37 76.92 L 299.97 78.48 L 299.57 80.07 L 299.17 81.64 L 299.13 81.82 L 299.13 81.82 L 298.73 83.48 L 298.35 85.08 L 298 86.58 L 297.72 87.87 L 297.51 88.9 L 297.39 89.48 L 297.39 89.48 L 297.24 88.66 L 297.03 87.59 L 296.75 86.26 L 296.42 84.76 L 296.07 83.2 L 295.89 82.42 L 295.89 82.42 L 295.64 81.32 L 295.31 79.95 L 294.9 78.27 L 294.4 76.28 L 293.82 74.01 L 293.19 71.54 L 292.51 68.93 L 291.8 66.22 L 291.07 63.41 L 290.97 63.06 Z" fill-rule="nonzero" stroke="rgb(255,255,255)" stroke-opacity="0"/>
                  </g>
                  <g id="GRID.polyline.727.1">
                    <polyline id="GRID.polyline.727.1.1" points="310.49,37.95 307.47,49.45 287.52,49.45 284.41,37.95 266.19,37.95 286.22,99.59 308.35,99.59 328.63,37.95 310.49,37.95" fill="none" fill-opacity="0"/>
                    <polyline id="GRID.polyline.727.1.2" points="304.02,63.06 301.38,73.14 301.38,73.14 301.09,74.21 300.75,75.47 300.37,76.92 299.97,78.48 299.57,80.07 299.17,81.64 299.13,81.82 299.13,81.82 298.73,83.48 298.35,85.08 298,86.58 297.72,87.87 297.51,88.9 297.39,89.48 297.39,89.48 297.24,88.66 297.03,87.59 296.75,86.26 296.42,84.76 296.07,83.2 295.89,82.42 295.89,82.42 295.64,81.32 295.31,79.95 294.9,78.27 294.4,76.28 293.82,74.01 293.19,71.54 292.51,68.93 291.8,66.22 291.07,63.41 290.97,63.06 304.02,63.06" fill="none" fill-opacity="0"/>
                  </g>
                </g>
                <g id="GRID.picComplexPath.687.1" stroke="rgb(255,255,255)" stroke-opacity="0">
                  <g id="GRID.pathgrob.728.1" fill="url(#greyscale.1)" fill-opacity="1">
                    <path id="GRID.pathgrob.728.1.1" d="M 352.15 60.29 L 352.15 37.95 L 335.57 37.95 L 335.57 99.34 L 355.68 99.34 L 355.68 99.34 L 358.78 99.26 L 361.71 99.01 L 364.49 98.58 L 367.12 97.96 L 369.58 97.14 L 371.85 96.11 L 373.89 94.88 L 375.69 93.46 L 377.21 91.87 L 378.44 90.13 L 379.4 88.26 L 380.08 86.29 L 380.51 84.2 L 380.7 82 L 380.71 81.2 L 380.71 81.2 L 380.61 79.28 L 380.31 77.38 L 379.79 75.49 L 379.02 73.62 L 378.02 71.8 L 376.8 70.09 L 375.39 68.51 L 373.83 67.1 L 372.14 65.84 L 370.32 64.72 L 370.29 64.7 L 388.18 37.95 L 369.37 37.95 L 356.35 60.29 Z M 352.15 72.76 L 355.26 72.76 L 355.26 72.76 L 356.79 72.83 L 358.2 73.06 L 359.51 73.45 L 360.69 74.02 L 361.72 74.77 L 362.55 75.69 L 363.19 76.74 L 363.63 77.9 L 363.87 79.16 L 363.94 80.45 L 363.94 80.45 L 363.86 81.6 L 363.6 82.66 L 363.13 83.64 L 362.45 84.52 L 361.57 85.27 L 360.5 85.88 L 359.27 86.32 L 357.92 86.62 L 356.45 86.77 L 355.43 86.79 L 352.15 86.79 Z" fill-rule="nonzero" stroke="rgb(255,255,255)" stroke-opacity="0"/>
                  </g>
                  <g id="GRID.polyline.729.1">
                    <polyline id="GRID.polyline.729.1.1" points="352.15,60.29 352.15,37.95 335.57,37.95 335.57,99.34 355.68,99.34 355.68,99.34 358.78,99.26 361.71,99.01 364.49,98.58 367.12,97.96 369.58,97.14 371.85,96.11 373.89,94.88 375.69,93.46 377.21,91.87 378.44,90.13 379.4,88.26 380.08,86.29 380.51,84.2 380.7,82 380.71,81.2 380.71,81.2 380.61,79.28 380.31,77.38 379.79,75.49 379.02,73.62 378.02,71.8 376.8,70.09 375.39,68.51 373.83,67.1 372.14,65.84 370.32,64.72 370.29,64.7 388.18,37.95 369.37,37.95 356.35,60.29 352.15,60.29" fill="none" fill-opacity="0"/>
                    <polyline id="GRID.polyline.729.1.2" points="352.15,72.76 355.26,72.76 355.26,72.76 356.79,72.83 358.2,73.06 359.51,73.45 360.69,74.02 361.72,74.77 362.55,75.69 363.19,76.74 363.63,77.9 363.87,79.16 363.94,80.45 363.94,80.45 363.86,81.6 363.6,82.66 363.13,83.64 362.45,84.52 361.57,85.27 360.5,85.88 359.27,86.32 357.92,86.62 356.45,86.77 355.43,86.79 352.15,86.79 352.15,72.76" fill="none" fill-opacity="0"/>
                  </g>
                </g>
                <g id="GRID.picComplexPath.690.1" stroke="rgb(255,255,255)" stroke-opacity="0">
                  <g id="GRID.pathgrob.730.1" fill="url(#greyscale.1)" fill-opacity="1">
                    <path id="GRID.pathgrob.730.1.1" d="M 446.16 69.95 L 446.16 69.95 L 446.08 67.24 L 445.85 64.56 L 445.44 61.9 L 444.85 59.26 L 444.07 56.7 L 443.11 54.27 L 442.01 52.03 L 440.79 50.01 L 439.47 48.22 L 438.04 46.62 L 437.69 46.26 L 437.69 46.26 L 436.1 44.84 L 434.34 43.51 L 432.36 42.29 L 430.16 41.18 L 427.76 40.21 L 425.21 39.4 L 422.59 38.78 L 419.93 38.33 L 417.26 38.06 L 414.58 37.95 L 413.91 37.95 L 394.05 37.95 L 394.05 99.34 L 415.3 99.34 L 415.3 99.34 L 417.96 99.27 L 420.59 99.05 L 423.21 98.67 L 425.8 98.11 L 428.32 97.38 L 430.69 96.49 L 432.87 95.47 L 434.82 94.34 L 436.55 93.11 L 438.1 91.79 L 438.11 91.78 L 438.11 91.78 L 439.54 90.3 L 440.87 88.63 L 442.09 86.74 L 443.19 84.62 L 444.14 82.3 L 444.91 79.84 L 445.5 77.31 L 445.89 74.74 L 446.1 72.16 L 446.16 69.95 Z M 428.94 69.36 L 428.94 69.36 L 428.88 71.41 L 428.69 73.43 L 428.37 75.4 L 427.9 77.25 L 427.32 78.92 L 426.63 80.33 L 425.88 81.51 L 425.59 81.87 L 425.59 81.87 L 424.6 82.91 L 423.4 83.84 L 421.95 84.64 L 420.32 85.26 L 418.58 85.68 L 416.81 85.9 L 415.45 85.95 L 410.62 85.95 L 410.62 51.56 L 414.33 51.56 L 414.33 51.56 L 416.24 51.64 L 418.11 51.9 L 419.93 52.37 L 421.62 53.03 L 423.11 53.86 L 424.35 54.82 L 425.36 55.88 L 425.41 55.93 L 425.41 55.93 L 426.21 57.08 L 426.94 58.45 L 427.58 60.06 L 428.12 61.9 L 428.52 63.9 L 428.79 65.96 L 428.92 68.06 L 428.94 69.36 Z" fill-rule="nonzero" stroke="rgb(255,255,255)" stroke-opacity="0"/>
                  </g>
                  <g id="GRID.polyline.731.1">
                    <polyline id="GRID.polyline.731.1.1" points="446.16,69.95 446.16,69.95 446.08,67.24 445.85,64.56 445.44,61.9 444.85,59.26 444.07,56.7 443.11,54.27 442.01,52.03 440.79,50.01 439.47,48.22 438.04,46.62 437.69,46.26 437.69,46.26 436.1,44.84 434.34,43.51 432.36,42.29 430.16,41.18 427.76,40.21 425.21,39.4 422.59,38.78 419.93,38.33 417.26,38.06 414.58,37.95 413.91,37.95 394.05,37.95 394.05,99.34 415.3,99.34 415.3,99.34 417.96,99.27 420.59,99.05 423.21,98.67 425.8,98.11 428.32,97.38 430.69,96.49 432.87,95.47 434.82,94.34 436.55,93.11 438.1,91.79 438.11,91.78 438.11,91.78 439.54,90.3 440.87,88.63 442.09,86.74 443.19,84.62 444.14,82.3 444.91,79.84 445.5,77.31 445.89,74.74 446.1,72.16 446.16,69.95 446.16,69.95" fill="none" fill-opacity="0"/>
                    <polyline id="GRID.polyline.731.1.2" points="428.94,69.36 428.94,69.36 428.88,71.41 428.69,73.43 428.37,75.4 427.9,77.25 427.32,78.92 426.63,80.33 425.88,81.51 425.59,81.87 425.59,81.87 424.6,82.91 423.4,83.84 421.95,84.64 420.32,85.26 418.58,85.68 416.81,85.9 415.45,85.95 410.62,85.95 410.62,51.56 414.33,51.56 414.33,51.56 416.24,51.64 418.11,51.9 419.93,52.37 421.62,53.03 423.11,53.86 424.35,54.82 425.36,55.88 425.41,55.93 425.41,55.93 426.21,57.08 426.94,58.45 427.58,60.06 428.12,61.9 428.52,63.9 428.79,65.96 428.92,68.06 428.94,69.36 428.94,69.36" fill="none" fill-opacity="0"/>
                  </g>
                </g>
                <g id="GRID.picComplexPath.693.1" stroke="rgb(255,255,255)" stroke-opacity="0">
                  <g id="GRID.pathgrob.732.1" fill="url(#greyscale.1)" fill-opacity="1">
                    <path id="GRID.pathgrob.732.1.1" d="M 497.6 56.59 L 497.6 56.59 L 497.54 55.01 L 497.34 53.39 L 496.99 51.73 L 496.49 50.1 L 495.88 48.59 L 495.18 47.24 L 494.69 46.45 L 494.69 46.45 L 493.84 45.26 L 492.81 44.09 L 491.61 42.93 L 490.25 41.85 L 488.83 40.88 L 487.39 40.07 L 486.33 39.56 L 486.33 39.56 L 484.93 38.98 L 483.37 38.46 L 481.65 38.01 L 479.8 37.63 L 477.9 37.36 L 476.03 37.19 L 474.21 37.11 L 473.54 37.11 L 473.54 37.11 L 471.84 37.12 L 470.12 37.18 L 468.39 37.29 L 466.73 37.44 L 465.23 37.63 L 463.91 37.84 L 463.24 37.96 L 463.24 37.96 L 461.97 38.26 L 460.6 38.64 L 459.13 39.11 L 457.63 39.66 L 456.19 40.26 L 454.83 40.87 L 454.6 40.98 L 454.6 55.76 L 454.6 55.76 L 455.94 55.1 L 457.38 54.44 L 458.93 53.8 L 460.53 53.19 L 462.09 52.65 L 463.56 52.2 L 464.46 51.95 L 464.46 51.95 L 465.96 51.58 L 467.51 51.25 L 469.13 50.98 L 470.71 50.77 L 472.17 50.64 L 473.5 50.59 L 473.86 50.59 L 473.86 50.59 L 475.18 50.64 L 476.45 50.8 L 477.61 51.07 L 478.56 51.44 L 479.29 51.87 L 479.29 51.87 L 479.87 52.38 L 480.36 53 L 480.73 53.7 L 480.94 54.44 L 481 55.17 L 481 55.17 L 480.98 55.63 L 480.89 56.11 L 480.75 56.58 L 480.55 57.01 L 480.32 57.37 L 480.32 57.37 L 480.03 57.72 L 479.64 58.11 L 479.16 58.52 L 478.63 58.91 L 478.08 59.28 L 478.08 59.28 L 477.49 59.62 L 476.58 60.1 L 475.33 60.72 L 473.8 61.45 L 472.07 62.25 L 470.21 63.1 L 469.93 63.23 L 469.93 63.23 L 468.3 64 L 466.7 64.81 L 465.14 65.66 L 463.71 66.51 L 462.46 67.33 L 461.44 68.08 L 460.91 68.51 L 460.91 68.51 L 459.95 69.4 L 459 70.41 L 458.12 71.53 L 457.35 72.68 L 456.73 73.79 L 456.46 74.39 L 456.46 74.39 L 456.03 75.5 L 455.66 76.77 L 455.36 78.19 L 455.15 79.68 L 455.04 81.14 L 455.02 82.25 L 455.02 82.25 L 455.09 83.99 L 455.33 85.71 L 455.74 87.42 L 456.33 89.11 L 457.1 90.71 L 458.02 92.19 L 459.06 93.5 L 460.2 94.66 L 461.19 95.48 L 461.19 95.48 L 462.58 96.45 L 464.16 97.33 L 465.96 98.13 L 467.96 98.82 L 470.12 99.39 L 472.35 99.81 L 474.6 100.08 L 476.86 100.21 L 478.16 100.23 L 478.16 100.23 L 480.1 100.18 L 482.12 100.03 L 484.27 99.75 L 486.51 99.36 L 488.81 98.84 L 491.08 98.22 L 493.27 97.52 L 495.36 96.75 L 497.37 95.91 L 497.6 95.81 L 492.52 83.01 L 492.52 83.01 L 490.56 83.87 L 488.58 84.64 L 486.55 85.34 L 484.52 85.93 L 482.58 86.39 L 480.77 86.71 L 479.14 86.89 L 477.66 86.95 L 477.65 86.95 L 477.65 86.95 L 476.5 86.91 L 475.39 86.76 L 474.38 86.52 L 473.56 86.19 L 472.94 85.81 L 472.94 85.81 L 472.45 85.36 L 472.03 84.84 L 471.71 84.24 L 471.53 83.62 L 471.47 83.01 L 471.47 83.01 L 471.54 82.34 L 471.77 81.65 L 472.17 80.95 L 472.7 80.32 L 473.33 79.76 L 473.33 79.76 L 473.96 79.33 L 474.91 78.78 L 476.19 78.08 L 477.78 77.27 L 479.61 76.38 L 481.6 75.44 L 483.49 74.57 L 483.49 74.57 L 485.38 73.68 L 487.2 72.71 L 488.95 71.67 L 490.57 70.57 L 492 69.47 L 493.18 68.4 L 494.12 67.38 L 494.5 66.9 L 494.5 66.9 L 495.3 65.72 L 496.01 64.37 L 496.62 62.83 L 497.09 61.16 L 497.41 59.45 L 497.57 57.77 L 497.6 56.59 Z" fill-rule="nonzero" stroke="rgb(255,255,255)" stroke-opacity="0"/>
                  </g>
                  <g id="GRID.polyline.733.1">
                    <polyline id="GRID.polyline.733.1.1" points="497.6,56.59 497.6,56.59 497.54,55.01 497.34,53.39 496.99,51.73 496.49,50.1 495.88,48.59 495.18,47.24 494.69,46.45 494.69,46.45 493.84,45.26 492.81,44.09 491.61,42.93 490.25,41.85 488.83,40.88 487.39,40.07 486.33,39.56 486.33,39.56 484.93,38.98 483.37,38.46 481.65,38.01 479.8,37.63 477.9,37.36 476.03,37.19 474.21,37.11 473.54,37.11 473.54,37.11 471.84,37.12 470.12,37.18 468.39,37.29 466.73,37.44 465.23,37.63 463.91,37.84 463.24,37.96 463.24,37.96 461.97,38.26 460.6,38.64 459.13,39.11 457.63,39.66 456.19,40.26 454.83,40.87 454.6,40.98 454.6,55.76 454.6,55.76 455.94,55.1 457.38,54.44 458.93,53.8 460.53,53.19 462.09,52.65 463.56,52.2 464.46,51.95 464.46,51.95 465.96,51.58 467.51,51.25 469.13,50.98 470.71,50.77 472.17,50.64 473.5,50.59 473.86,50.59 473.86,50.59 475.18,50.64 476.45,50.8 477.61,51.07 478.56,51.44 479.29,51.87 479.29,51.87 479.87,52.38 480.36,53 480.73,53.7 480.94,54.44 481,55.17 481,55.17 480.98,55.63 480.89,56.11 480.75,56.58 480.55,57.01 480.32,57.37 480.32,57.37 480.03,57.72 479.64,58.11 479.16,58.52 478.63,58.91 478.08,59.28 478.08,59.28 477.49,59.62 476.58,60.1 475.33,60.72 473.8,61.45 472.07,62.25 470.21,63.1 469.93,63.23 469.93,63.23 468.3,64 466.7,64.81 465.14,65.66 463.71,66.51 462.46,67.33 461.44,68.08 460.91,68.51 460.91,68.51 459.95,69.4 459,70.41 458.12,71.53 457.35,72.68 456.73,73.79 456.46,74.39 456.46,74.39 456.03,75.5 455.66,76.77 455.36,78.19 455.15,79.68 455.04,81.14 455.02,82.25 455.02,82.25 455.09,83.99 455.33,85.71 455.74,87.42 456.33,89.11 457.1,90.71 458.02,92.19 459.06,93.5 460.2,94.66 461.19,95.48 461.19,95.48 462.58,96.45 464.16,97.33 465.96,98.13 467.96,98.82 470.12,99.39 472.35,99.81 474.6,100.08 476.86,100.21 478.16,100.23 478.16,100.23 480.1,100.18 482.12,100.03 484.27,99.75 486.51,99.36 488.81,98.84 491.08,98.22 493.27,97.52 495.36,96.75 497.37,95.91 497.6,95.81 492.52,83.01 492.52,83.01 490.56,83.87 488.58,84.64 486.55,85.34 484.52,85.93 482.58,86.39 480.77,86.71 479.14,86.89 477.66,86.95 477.65,86.95 477.65,86.95 476.5,86.91 475.39,86.76 474.38,86.52 473.56,86.19 472.94,85.81 472.94,85.81 472.45,85.36 472.03,84.84 471.71,84.24 471.53,83.62 471.47,83.01 471.47,83.01 471.54,82.34 471.77,81.65 472.17,80.95 472.7,80.32 473.33,79.76 473.33,79.76 473.96,79.33 474.91,78.78 476.19,78.08 477.78,77.27 479.61,76.38 481.6,75.44 483.49,74.57 483.49,74.57 485.38,73.68 487.2,72.71 488.95,71.67 490.57,70.57 492,69.47 493.18,68.4 494.12,67.38 494.5,66.9 494.5,66.9 495.3,65.72 496.01,64.37 496.62,62.83 497.09,61.16 497.41,59.45 497.57,57.77 497.6,56.59 497.6,56.59" fill="none" fill-opacity="0"/>
                  </g>
                </g>
              </g>
            </g>
          </g>
        </g>
      </g>
    </g>
  </g>
</svg>